<svg xmlns="http://www.w3.org/2000/svg" xmlns:xlink="http://www.w3.org/1999/xlink" width="19" height="18" viewBox="0 0 19 18">
  <defs>
    <clipPath id="clip-path">
      <rect id="Rectangle_172" data-name="Rectangle 172" width="19" height="18" transform="translate(-0.458 0.102)"/>
    </clipPath>
  </defs>
  <g id="dropdown" transform="translate(0.458 -0.102)">
    <g id="Group_104" data-name="Group 104" clip-path="url(#clip-path)">
      <path id="Path_74" data-name="Path 74" d="M22.449,36.291l4.5,4.5a.764.764,0,0,0,1.261-.074l4.179-4.244a.774.774,0,0,0,.222-.68.545.545,0,0,0-.347-.423.793.793,0,0,0-.89.137l-3.837,3.85-3.864-3.85a.781.781,0,0,0-.9-.137.819.819,0,0,0-.321.921" transform="translate(-18.261 -28.741)"/>
    </g>
  </g>
</svg>
