<svg xmlns="http://www.w3.org/2000/svg" width="34.578" height="38.907" viewBox="0 0 34.578 38.907">
  <g id="Group_92" data-name="Group 92" transform="translate(-265.67 -712.631)">
    <path id="arrow" d="M.77,19.1,15.491,33.82A2.551,2.551,0,1,0,19.1,30.212L8.756,19.821h27.6a2.55,2.55,0,1,0,0-5.1H8.756L19.1,4.378A2.526,2.526,0,0,0,19.1.77,2.629,2.629,0,0,0,17.271,0a2.512,2.512,0,0,0-1.828.77L.77,15.443a2.556,2.556,0,0,0,0,3.656Z" transform="translate(265.67 751.538) rotate(-90)" fill="#fff"/>
  </g>
</svg>
